# xmcd
#
# Track frame offsets: 
#        150
#        11685
#        23611
#        36913
#        49506
#        62123
#        73796
#        87573
#        100325
#        112232
#        124520
#        136027
#        147540
#        160170
#        172270
#        184661
#        197397
#        210140
#        224339
#        236871
#        249074
#        261288
#        272569
#        285528
#
# Disc length: 3971 seconds
#
# Revision: 0
# Processed by: cddbd v1.5.2PL0 Copyright (c) Steve Scherf et al.
# Submitted via: ExactAudioCopyFreeDBPlugin 1.0
#
DISCID=5e0f8118
DTITLE=Various Artist - Dixie Jubilee Singers - Complete Recorded Works (1924
DTITLE=1928
DYEAR=1996
DGENRE=Gospel
TTITLE0=Dixie Jubilee Singers - Golden Slipper
TTITLE1=Dixie Jubilee Singers - My Lord's Gonna Move This Wicked Race
TTITLE2=Dixie Jubilee Singers - Roll, Jordan Roll
TTITLE3=Dixie Jubilee Singers - I Couldn't Hear Nobody Pray
TTITLE4=Dixie Jubilee Singers - Whiter Than Snow
TTITLE5=Dixie Jubilee Singers - Let the Lower Lights Be Burning
TTITLE6=Dixie Jubilee Singers - Climbin' Up the Mountain, Children
TTITLE7=Dixie Jubilee Singers - Good News
TTITLE8=Dixie Jubilee Singers - So I Can Write My Name
TTITLE9=Dixie Jubilee Singers - Stand Steady
TTITLE10=Dixie Jubilee Singers - Scandalize' My Name
TTITLE11=Dixie Jubilee Singers - Who Is That Yonder
TTITLE12=Dixie Jubilee Singers - Sun Don't Set in the Mornin'
TTITLE13=Dixie Jubilee Singers - Joshua Fit the Battle of Jericho
TTITLE14=Dixie Jubilee Singers - Send One Angel Down
TTITLE15=Dixie Jubilee Singers - His Trouble Was Hard
TTITLE16=Dixie Jubilee Singers - What's You Gonna Do When the World's 
TTITLE16=on Fire?
TTITLE17=Dixie Jubilee Singers - I Ain't Gonna Study War No More
TTITLE18=Dixie Jubilee Singers - Ezekle Saw the Wheel in the Middle of
TTITLE18=the Air
TTITLE19=Dixie Jubilee Singers - Give Me That Old Time Religion
TTITLE20=Bryant's Jubilee Quartet - Didn't It Rain [take 1]
TTITLE21=Bryant's Jubilee Quartet - Didn't It Rain [take 2]
TTITLE22=Bryant's Jubilee Quartet - This Wicked Race
TTITLE23=Bryant's Jubilee Quartet - I'll Be Satisfied
EXTD=
EXTT0=
EXTT1=
EXTT2=
EXTT3=
EXTT4=
EXTT5=
EXTT6=
EXTT7=
EXTT8=
EXTT9=
EXTT10=
EXTT11=
EXTT12=
EXTT13=
EXTT14=
EXTT15=
EXTT16=
EXTT17=
EXTT18=
EXTT19=
EXTT20=
EXTT21=
EXTT22=
EXTT23=
PLAYORDER=
